<svg width="54" height="32" viewBox="0 0 54 32" fill="none" xmlns="http://www.w3.org/2000/svg">
<path d="M24 13V22L31 17.5L24 13Z" fill="#513CCA"/>
<path d="M38.5391 6.67188H15.4609C14.1039 6.67188 13 7.7758 13 9.13281V25.5391C13 26.8961 14.1039 28 15.4609 28H38.5391C39.8961 28 41 26.8961 41 25.5391V9.13281C41 7.7758 39.8961 6.67188 38.5391 6.67188ZM37.7188 23.8984C37.7188 24.3519 37.3519 24.7188 36.8984 24.7188H17.1016C16.6481 24.7188 16.2812 24.3519 16.2812 23.8984V10.7734C16.2812 10.32 16.6481 9.95312 17.1016 9.95312H36.8984C37.3519 9.95312 37.7188 10.32 37.7188 10.7734V23.8984Z" fill="#513CCA"/>
<path d="M8.34409 29.5505C4.42037 26.424 2.17008 21.7554 2.17008 16.742C2.17008 11.7287 4.42023 7.06017 8.3438 3.93367C8.81246 3.5602 8.88957 2.87749 8.5161 2.4089C8.1427 1.94023 7.46 1.86305 6.99133 2.23652C2.54825 5.77715 0 11.0642 0 16.742C0 22.42 2.54832 27.7071 6.9917 31.2476C7.46007 31.6209 8.14285 31.544 8.51646 31.0752C8.88986 30.6066 8.81275 29.9239 8.34409 29.5505Z" fill="#513CCA"/>
<path d="M46.7614 2.23649C46.2927 1.86309 45.6101 1.9402 45.2366 2.40887C44.8632 2.87753 44.9403 3.56017 45.4089 3.93364C49.3324 7.06021 51.5825 11.7286 51.5825 16.7419C51.5825 21.7552 49.3324 26.4236 45.4089 29.5501C44.9402 29.9236 44.8631 30.6063 45.2365 31.0749C45.6102 31.5437 46.2929 31.6204 46.7613 31.2472C51.2043 27.7066 53.7526 22.4196 53.7526 16.7419C53.7526 11.0641 51.2043 5.77711 46.7614 2.23649Z" fill="#513CCA"/>
<path d="M11.1728 25.4933C8.62902 23.47 7.17008 20.4522 7.17008 17.2139C7.17008 13.9754 8.62902 10.9577 11.1729 8.93429C11.6418 8.56125 11.7196 7.87869 11.3465 7.40967C10.9734 6.94064 10.2909 6.86288 9.82191 7.23592C6.75754 9.67342 5 13.3102 5 17.2139C5 21.1175 6.75754 24.7542 9.82184 27.1916C10.2912 27.5648 10.9736 27.4867 11.3465 27.0179C11.7195 26.5489 11.6417 25.8663 11.1728 25.4933Z" fill="#513CCA"/>
<path d="M43.7606 7.23589C43.2916 6.86292 42.6091 6.94061 42.236 7.40964C41.863 7.87859 41.9407 8.56122 42.4097 8.93426C44.9535 10.9576 46.4124 13.9753 46.4124 17.2137C46.4124 20.4521 44.9535 23.4699 42.4096 25.4932C41.9407 25.8662 41.8628 26.5488 42.236 27.0178C42.6092 27.487 43.2919 27.5644 43.7606 27.1915C46.8249 24.754 48.5825 21.1173 48.5825 17.2137C48.5825 13.3101 46.8249 9.67331 43.7606 7.23589Z" fill="#513CCA"/>
<path d="M32.9824 0.240358L28.3008 4.92188H30.6207L34.1423 1.40028C34.4627 1.07987 34.4627 0.560718 34.1423 0.240304C33.8219 -0.0801104 33.3028 -0.0801104 32.9824 0.240358Z" fill="#513CCA"/>
<path d="M19.8575 0.240352C19.5371 0.560766 19.5371 1.07991 19.8575 1.40033L23.379 4.92188H25.699L21.0174 0.240352C20.697 -0.0801172 20.1779 -0.0801172 19.8575 0.240352Z" fill="#513CCA"/>
</svg>
