<svg width="68" height="41" viewBox="0 0 68 41" fill="none" xmlns="http://www.w3.org/2000/svg">
<g clip-path="url(#clip0)">
<path d="M0 21.3013H8.63926C13.0194 21.3013 16.2584 23.5432 16.2584 28.2C16.2584 32.0326 13.8666 34.4244 10.057 34.4244H6.57022V40.0783H0V21.3013ZM6.57598 29.6927H7.25029C8.44331 29.6927 9.74006 29.491 9.74006 27.9752C9.74006 26.5056 8.34533 26.4307 7.22724 26.4307H6.58174V29.6927H6.57598Z" fill="url(#paint0_linear)"/>
<path d="M17.6301 21.3013H24.4539V34.0498H30.1827V40.0783H17.6301V21.3013Z" fill="url(#paint1_linear)"/>
<path d="M38.5741 40.0783H31.3526L37.8767 21.3013H45.4209L52.118 40.0783H44.9023L44.2798 37.7383H39.1274L38.5741 40.0783ZM43.081 33.2775L42.2857 29.9693C42.084 29.174 41.9629 28.3498 41.8361 27.5545H41.5883L40.3434 33.2775H43.081Z" fill="url(#paint2_linear)"/>
<path d="M56.0313 21.3013L58.1234 26.2059H58.3251C58.5268 25.6065 58.6997 25.0129 58.9475 24.4365L60.2904 21.3013H67.9614L61.5353 31.9865V40.0783H54.8613V31.9865L48.3084 21.3013H56.0313Z" fill="url(#paint3_linear)"/>
<path d="M4.4032 14.3508H9.62479V18.0393H0.0461044V1.29102H4.39743V14.3508H4.4032Z" fill="#513CCA"/>
<path d="M23.4165 18.0392H19.3764V16.7712H19.3303C18.6214 17.9066 17.2209 18.4138 15.8896 18.4138C12.5122 18.4138 10.1377 15.5897 10.1377 12.3277C10.1377 9.05987 12.4719 6.26465 15.8492 6.26465C17.1575 6.26465 18.5349 6.75453 19.3821 7.75159V6.63927H23.4222V18.0392H23.4165ZM14.3104 12.3507C14.3104 13.7916 15.2671 14.9039 16.9097 14.9039C18.5522 14.9039 19.5089 13.7916 19.5089 12.3507C19.5089 10.9503 18.5522 9.77453 16.9097 9.77453C15.2671 9.77453 14.3104 10.9503 14.3104 12.3507Z" fill="#513CCA"/>
<path d="M30.5285 18.0392H26.4883V9.97632H25.1801V6.64511H26.4883V3.22168H30.5285V6.64511H32.8165V9.97632H30.5285V18.0392Z" fill="#513CCA"/>
<path d="M38.3897 2.265C38.3897 3.50988 37.3696 4.52999 36.1247 4.52999C34.8798 4.52999 33.8597 3.50988 33.8597 2.265C33.8597 1.02011 34.8856 0 36.1247 0C37.3638 0 38.3897 1.02011 38.3897 2.265ZM38.1476 18.0393H34.1075V6.64514H38.1476V18.0393Z" fill="#513CCA"/>
<path d="M44.8561 8.10892H44.9023C45.8359 6.73148 46.9655 6.26465 48.5447 6.26465C51.6108 6.26465 52.8326 8.19537 52.8326 10.9964V18.0392H48.7868V12.4833C48.7868 11.394 48.9654 9.48636 46.9655 9.48636C45.323 9.48636 44.8561 10.7082 44.8561 12.1317V18.0392H40.816V6.64503H44.8561V8.10892Z" fill="#513CCA"/>
<path d="M67.9614 18.0392H63.9213V16.7712H63.8752C63.1663 17.9066 61.7658 18.4138 60.4345 18.4138C57.0572 18.4138 54.6827 15.5897 54.6827 12.3277C54.6827 9.05987 57.0168 6.26465 60.3941 6.26465C61.7024 6.26465 63.0799 6.75453 63.9271 7.75159V6.63927H67.9672V18.0392H67.9614ZM58.8496 12.3507C58.8496 13.7916 59.8063 14.9039 61.4488 14.9039C63.0914 14.9039 64.0481 13.7916 64.0481 12.3507C64.0481 10.9503 63.0914 9.77453 61.4488 9.77453C59.8063 9.77453 58.8496 10.9503 58.8496 12.3507Z" fill="#513CCA"/>
</g>
<defs>
<linearGradient id="paint0_linear" x1="0" y1="30.6893" x2="16.2621" y2="30.6893" gradientUnits="userSpaceOnUse">
<stop stop-color="#FFAE00"/>
<stop offset="0.0719" stop-color="#FFB100"/>
<stop offset="1" stop-color="#FFCE01"/>
</linearGradient>
<linearGradient id="paint1_linear" x1="17.6314" y1="30.6893" x2="30.1828" y2="30.6893" gradientUnits="userSpaceOnUse">
<stop stop-color="#FFAE00"/>
<stop offset="0.0719" stop-color="#FFB100"/>
<stop offset="1" stop-color="#FFCE01"/>
</linearGradient>
<linearGradient id="paint2_linear" x1="31.3523" y1="30.6893" x2="52.1217" y2="30.6893" gradientUnits="userSpaceOnUse">
<stop stop-color="#FFAE00"/>
<stop offset="0.0719" stop-color="#FFB100"/>
<stop offset="1" stop-color="#FFCE01"/>
</linearGradient>
<linearGradient id="paint3_linear" x1="48.3112" y1="30.6893" x2="67.96" y2="30.6893" gradientUnits="userSpaceOnUse">
<stop stop-color="#FFAE00"/>
<stop offset="0.0719" stop-color="#FFB100"/>
<stop offset="1" stop-color="#FFCE01"/>
</linearGradient>
<clipPath id="clip0">
<rect width="67.9614" height="40.0783" fill="white"/>
</clipPath>
</defs>
</svg>
