<svg width="20" height="21" viewBox="0 0 20 21" fill="none" xmlns="http://www.w3.org/2000/svg">
<path d="M19.3242 16.4657L16.02 13.2128C16.6208 12.0299 17.0213 10.6499 17.0213 9.26993C17.0213 4.63707 13.2165 0.891357 8.51064 0.891357C3.80476 0.891357 0 4.63707 0 9.26993C0 13.9028 3.80476 17.6485 8.51064 17.6485C9.91239 17.6485 11.3141 17.2542 12.5156 16.6628L15.8198 19.9157C16.821 20.9014 18.3229 20.9014 19.3242 19.9157C20.2253 18.9299 20.2253 17.4514 19.3242 16.4657ZM8.51064 15.6771C4.90613 15.6771 2.0025 12.8185 2.0025 9.26993C2.0025 5.72136 4.90613 2.86279 8.51064 2.86279C12.1151 2.86279 15.0188 5.72136 15.0188 9.26993C15.0188 12.8185 12.1151 15.6771 8.51064 15.6771Z" fill="#545454"/>
</svg>
